<svg width="826" height="770" viewBox="0 0 826 770" fill="none" xmlns="http://www.w3.org/2000/svg">
<path d="M586 403.5L240.5 57V56V53.7266L241 52L241.5 51L243.5 50H245H246.5L249.5 52.5L301.5 105L291 106.5H293.5L298 107L301.5 108L303.5 108.5L306.5 109.5L336 139.5L356.5 159.5L362 165.5L396.5 200L480.5 284.5L499 302.5L515.5 319L537 340.5L568 372L592 396L594.5 399L596 401.5L597.5 405.5L599 409.5L600 413.5V527.5V566.5L600.5 570.5L602 576.5L603 579.5L606.5 585L610.5 591.5L614.5 596L616.5 598.5L710.5 691.5L718 699L725 706L732.5 720.5L733 726.5V752.5L733.5 753.5L733 766L732.5 767.5L731.5 768.5L730 769H727L725.5 768L724.5 767L724 766.5V763V727.5L722 720L718 712.5L712 706L642 637L634 629L623.5 618.5L616 611L608 603.5L601 595L596.5 587.5L596 587L595 589L594 590.5L568.5 616.5L564.5 624L563 632V678.5V681.5L562.5 683L562 684L561 684.5V688L563 690V692.5V721.5L559 730.5L551.5 734H545H486.251H449.5H446L443.798 732.5L443 731.5L442.76 730.5L443 729L443.5 727L445 725.5L446 725V726L444.5 727L444 728.5V730.5L445 732L447 733L449 732.5L450.5 731.5L451 730V728.5L450.5 727L449 726V724.5H549.5L552 723.5L553.5 720.5V693.5V690.5L555.5 688V684.5H555L553.5 682.5V679.5V630.5L555.5 620.5L561 611L586.5 585L589.5 580L590.5 573.5V545V413.5L589 408.5L586 403.5Z" fill="#DA291C" stroke="#DA291C"/>
<circle cx="280.5" cy="90.5" r="3" fill="white"/>
<circle cx="324.5" cy="134.5" r="3" fill="white"/>
<circle cx="309" cy="135" r="2.5" fill="white"/>
<circle cx="338" cy="135" r="2.5" fill="white"/>
<circle cx="357.5" cy="167.5" r="3" fill="white"/>
<circle cx="391.5" cy="200.5" r="3" fill="white"/>
<circle cx="423" cy="234" r="3.5" fill="white"/>
<circle cx="464.5" cy="274.5" r="3" fill="white"/>
<circle cx="491" cy="301" r="3.5" fill="white"/>
<circle cx="530" cy="341" r="3.5" fill="white"/>
<circle cx="569" cy="380" r="3.5" fill="white"/>
<circle cx="595.5" cy="457.5" r="3" fill="white"/>
<circle cx="595.5" cy="497.5" r="3" fill="white"/>
<circle cx="595.5" cy="535.5" r="3" fill="white"/>
<circle cx="558.5" cy="627.5" r="3" fill="white"/>
<circle cx="657.5" cy="645.5" r="3" fill="white"/>
<circle cx="683.5" cy="671.5" r="3" fill="white"/>
<circle cx="709.5" cy="697.5" r="3" fill="white"/>
<circle cx="728.5" cy="725.5" r="3" fill="white"/>
<circle cx="728.5" cy="764.5" r="3" fill="white"/>
<circle cx="558.5" cy="645.5" r="3" fill="white"/>
<circle cx="558.5" cy="663.5" r="3" fill="white"/>
<circle cx="558.5" cy="710.5" r="3" fill="white"/>
<circle cx="549.5" cy="729.5" r="3" fill="white"/>
<circle cx="529.5" cy="729.5" r="3" fill="white"/>
<circle cx="467.5" cy="729.5" r="3" fill="white"/>
<circle cx="447.5" cy="729.5" r="3" fill="white"/>
<circle cx="509.5" cy="729.5" r="3" fill="white"/>
<circle cx="487.5" cy="729.5" r="3" fill="white"/>
<circle cx="558" cy="692" r="3.5" fill="white"/>
<circle cx="558" cy="681" r="3.5" fill="white"/>
<circle cx="244.5" cy="54.5" r="3" fill="white"/>
<path d="M556.5 86.2887V5V4L557 2.5L558.5 1.5L560 0.5H561.5L562.5 1L564 1.5L565.5 3.5L566 6.5V18.5V41.5V113V178V238.5V266.5V281V288.5V298.5V301.5L565.5 303V305.5L565 308L563 313.5L562.5 314.5L561.5 316L559.5 318L547.5 330.5L538.5 339L530.5 347L530 347.5L507 370.5L493 384.5L465.5 412L443 434.5L402.5 475L385 492.5L356 521.5L355 522.5L326.5 551L324.5 553L305.5 572L236.5 641L234 643L233.5 643.5H232.5H231.5H231L230.5 643H230H229.5L228 641.5L227.5 640.5V638.5V637L229.5 634.5L233.5 631L251.5 612.5L261.5 603L271.5 592.5L280.5 584L319 545.5L333 531.5L349.5 515L364 500L369.5 494.5L371.5 493L373.5 490.5L391.5 472.5L416.5 447.5L423.5 440.5L442.5 421.5L452.5 411.5L479.5 384.5L489 375L519 345L534 330.5L541 323.5L552 312.5L553.5 311L554 310L555 308L556 306L556.5 304.5V303V289.684V249.5V239.5V210V204V181V86.2887Z" fill="#ED8B00" stroke="#ED8B00"/>
<circle cx="561.163" cy="5.50003" r="3" fill="white"/>
<path d="M564.444 31.3485C564.444 33.0053 563.101 34.3485 561.444 34.3485C559.787 34.3485 558.444 33.0053 558.444 31.3485C558.444 29.6916 559.787 28.3485 561.444 28.3485C563.101 28.3485 564.444 29.6916 564.444 31.3485Z" fill="white"/>
<circle cx="561.09" cy="57.0086" r="3" fill="white"/>
<circle cx="560.991" cy="82.5" r="3" fill="white"/>
<circle cx="561.188" cy="108.107" r="3" fill="white"/>
<circle cx="561.09" cy="133.598" r="3" fill="white"/>
<circle cx="561" cy="207" r="3.5" fill="white"/>
<path d="M564.564 242.327C564.564 244.26 562.997 245.827 561.064 245.827C559.131 245.827 557.564 244.26 557.564 242.327C557.564 240.394 559.131 238.827 561.064 238.827C562.997 238.827 564.564 240.394 564.564 242.327Z" fill="white"/>
<circle cx="561" cy="295" r="3.5" fill="white"/>
<circle cx="529.812" cy="340.402" r="3" fill="white"/>
<path d="M494.192 379.58C494.192 381.237 492.849 382.58 491.192 382.58C489.535 382.58 488.192 381.237 488.192 379.58C488.192 377.923 489.535 376.58 491.192 376.58C492.849 376.58 494.192 377.923 494.192 379.58Z" fill="white"/>
<circle cx="447.5" cy="423.5" r="3" fill="white"/>
<path d="M425.5 448.5C425.5 450.157 424.157 451.5 422.5 451.5C420.843 451.5 419.5 450.157 419.5 448.5C419.5 446.843 420.843 445.5 422.5 445.5C424.157 445.5 425.5 446.843 425.5 448.5Z" fill="white"/>
<circle cx="399.929" cy="470.842" r="3" fill="white"/>
<circle cx="375.929" cy="494.929" r="3" fill="white"/>
<circle cx="352.157" cy="518.614" r="3" fill="white"/>
<circle cx="322.5" cy="548.5" r="3" fill="white"/>
<circle cx="292.5" cy="578.5" r="3" fill="white"/>
<path d="M264.951 608.741C264.951 610.398 263.607 611.741 261.951 611.741C260.294 611.741 258.951 610.398 258.951 608.741C258.951 607.084 260.294 605.741 261.951 605.741C263.607 605.741 264.951 607.084 264.951 608.741Z" fill="white"/>
<path d="M234.815 638.815C234.815 640.472 233.472 641.815 231.815 641.815C230.158 641.815 228.815 640.472 228.815 638.815C228.815 637.158 230.158 635.815 231.815 635.815C233.472 635.815 234.815 637.158 234.815 638.815Z" fill="white"/>
<path d="M465.5 149.5L466.5 149H496.5L383.5 36L383 35.5L382.5 35L382 33L383.5 29.5L385.5 28H388.5L403 42L495 134.5L520.5 160.5L538.5 177.5L549 189L551 192L553.5 197.5L554 202.5V239L553 245.5L462 336.5L453 343L444.5 346L438 346.5H364L359.5 347.5L354.5 351L351.5 353.5L350 359L348.5 361.5V367L348 406.5L348.5 408.5L348 411L347 414.5L344.5 418.5L343 421.5L332.5 432L239 526L236.5 528H233.5L232 527.5L230.5 526L230 524.5V523L230.5 521.5L265.5 486L327 424.5L330.5 421.5L333 418.5L336 414.5L337.5 411L338.5 408.5L339 407V361.5L339.5 359L341 353.5L342.5 351L344.5 347.5L345 346.5H289L288 347H284L283.5 348L276 352.5L274.5 354.5L243.5 384.5L122.5 505.5L97.5 530L93.5 533L88 536.5L80.5 539L79.5 539.5H74.5L73 539L71.5 537.5L71 536.5V534.5L71.5 533L73 531L74.5 530.5H78L84 528L89.5 524.5L91.5 523L119.5 495L136 479L163 451.5L208.5 406.5L230.5 384.5L243.5 372L265 350L269 346.5H254.5L249 345L243.5 342.5L240 341L235 337L210.5 312.5L207 310V309.5L206 309L205.5 308.5L201 307L200.5 306.5H192.5L187 308.5L184.5 310.5L181.5 313L130 364.5L83 411L64 430.5L60 434L55 438L48.5 441.5L46 442.5L44 443.5H43L42 444H37.5L36 443.5L34 442L33 441V439L33.5 437.5L34.5 436L36 435L38.5 434.5H40.5L43 434L45.5 432.5L53.5 427L55.5 425L80.5 400.5L98 383L100.407 381.074L111 370L173 308L180.5 301.5L183.5 300L189.5 297.5L192 297L199 297.5H202L205.5 298.5L209.5 300.5L213 302.5L218 307L232 320.5L241.5 330.5L243.5 332L247 334L250.5 335.5L251.5 336.5L254.5 337H265.5L170.5 242L166 238L162 235L158 233H157L153.5 232.5H136L133.5 233.5L130.5 235L128 236.5L126 238L123 240.5L112.5 251.5L92.5 271L78.5 285.5L59.5 304.5L39.5 324L29 335L23 339.5L17 343.5L15.5 344L13 345.5H11L10.5 346H9.5L9 346.5H3.5L2.5 346H2L1 344.5L0.5 342.5V340L1 339L2 338.5L3 337.5H7L10 336L12.5 335.5L16 333L20.5 330L25.5 325.5L45.5 305L57.5 293L75.5 275.5L104.5 246.5L117 233.5L122 229.5L124.5 228L128.5 225.5L132.5 224.5L137.5 223H147L154 223.5H157.5L160.5 224.5L166 227L169.5 229L177.5 236L267.5 326L272.5 330.5L274.5 332.5L276 334.5H277.5L280 337L283.5 340L283 341.5L283.5 343L284 344L285 345L286 345.5L288 345L289.5 344.5L290.5 343V340.5L289.5 339L288.5 338.5L287 338L286.5 338.5L286 338H285L284.5 337H440L442.5 336.5L447 335.5L448.5 335L451.5 333L455.5 330L488.5 297L510.5 274.5L534.5 250.5L541.5 244L542.5 243L543 241.5L544 239.5L544.5 237.5V200L543.5 198L543 196.5L541.5 194.5L539.5 192.5L529.5 182L525 177.5L516.5 169.5L511.5 164L508 161L502 158H466L465.5 157.5H465L463.5 156L463 155V152L464 150.5L465.5 149.5Z" fill="#00843D"/>
<path d="M383 35.5L496.5 149H466.5L465.5 149.5L464 150.5L463 152V155L463.5 156L465 157.5H465.5L466 158H502L508 161L511.5 164L516.5 169.5L525 177.5L529.5 182L539.5 192.5L541.5 194.5L543 196.5L543.5 198L544.5 200V237.5L544 239.5L543 241.5L542.5 243L541.5 244L534.5 250.5L510.5 274.5L488.5 297L455.5 330L451.5 333L448.5 335L447 335.5L442.5 336.5L440 337H284.5L285 338H286L286.5 338.5L287 338L288.5 338.5L289.5 339L290.5 340.5V343L289.5 344.5L288 345L286 345.5L285 345L284 344L283.5 343L283 341.5L283.5 340L280 337L277.5 334.5H276L274.5 332.5L272.5 330.5L267.5 326L177.5 236L169.5 229L166 227L160.5 224.5L157.5 223.5H154L147 223H137.5L132.5 224.5L128.5 225.5L124.5 228L122 229.5L117 233.5L104.5 246.5L75.5 275.5L57.5 293L45.5 305L25.5 325.5L20.5 330L16 333L12.5 335.5L10 336L7 337.5H3L2 338.5L1 339L0.5 340V342.5L1 344.5L2 346H2.5L3.5 346.5H9L9.5 346H10.5L11 345.5H13L15.5 344L17 343.5L23 339.5L29 335L39.5 324L59.5 304.5L78.5 285.5L92.5 271L112.5 251.5L123 240.5L126 238L128 236.5L130.5 235L133.5 233.5L136 232.5H153.5L157 233H158L162 235L166 238L170.5 242L265.5 337H254.5L251.5 336.5L250.5 335.5L247 334L243.5 332L241.5 330.5L232 320.5L218 307L213 302.5L209.5 300.5L205.5 298.5L202 297.5H199L192 297L189.5 297.5L183.5 300L180.5 301.5L173 308L111 370L100 381.5M100.5 381L98 383L80.5 400.5L55.5 425L53.5 427L45.5 432.5L43 434L40.5 434.5H38.5L36 435L34.5 436L33.5 437.5L33 439V441L34 442L36 443.5L37.5 444H42L43 443.5H44L46 442.5L48.5 441.5L55 438L60 434L64 430.5L83 411L130 364.5L181.5 313L184.5 310.5L187 308.5L192.5 306.5H200.5L201 307L205.5 308.5L206 309L207 309.5V310L210.5 312.5L235 337L240 341L243.5 342.5L249 345L254.5 346.5H269L265 350L243.5 372L230.5 384.5L208.5 406.5L163 451.5L136 479L119.5 495L91.5 523L89.5 524.5L84 528L78 530.5H74.5L73 531L71.5 533L71 534.5V536.5L71.5 537.5L73 539L74.5 539.5H79.5L80.5 539L88 536.5L93.5 533L97.5 530L122.5 505.5L243.5 384.5L274.5 354.5L276 352.5L283.5 348L284 347H288L289 346.5H345L344.5 347.5L342.5 351L341 353.5L339.5 359L339 361.5V407L338.5 408.5L337.5 411L336 414.5L333 418.5L330.5 421.5L327 424.5L265.5 486L230.5 521.5L230 523V524.5L230.5 526L232 527.5L233.5 528H236.5L239 526L332.5 432L343 421.5L344.5 418.5L347 414.5L348 411L348.5 408.5L348 406.5L348.5 367V361.5L350 359L351.5 353.5L354.5 351L359.5 347.5L364 346.5H438L444.5 346L453 343L462 336.5L553 245.5L554 239V202.5L553.5 197.5L551 192L549 189L538.5 177.5L520.5 160.5L495 134.5L403 42L388.5 28H385.5L383.5 29.5L382 33L382.5 35L383.5 36" stroke="#00843D"/>
<circle cx="386.5" cy="32.5" r="3" fill="white"/>
<circle cx="408.5" cy="54.5" r="3" fill="white"/>
<circle cx="429.5" cy="75.5" r="3" fill="white"/>
<circle cx="451.5" cy="97.5" r="3" fill="white"/>
<circle cx="472.5" cy="118.5" r="3" fill="white"/>
<circle cx="467.687" cy="153.5" r="3" fill="white"/>
<circle cx="516.5" cy="162.5" r="3" fill="white"/>
<circle cx="524.656" cy="267.285" r="3" fill="white"/>
<circle cx="490.798" cy="301.142" r="3" fill="white"/>
<circle cx="447.797" cy="340.19" r="3" fill="white"/>
<circle cx="408.191" cy="341.672" r="3" fill="white"/>
<circle cx="368.72" cy="341.672" r="3" fill="white"/>
<circle cx="328.938" cy="341.672" r="3" fill="white"/>
<circle cx="286.855" cy="341.672" r="3" fill="white"/>
<circle cx="250.553" cy="315.724" r="3" fill="white"/>
<circle cx="234.999" cy="299.724" r="3" fill="white"/>
<circle cx="218.462" cy="283.321" r="3" fill="white"/>
<circle cx="202.194" cy="267.591" r="3" fill="white"/>
<circle cx="186.194" cy="251.322" r="3" fill="white"/>
<circle cx="146.263" cy="227.525" r="3" fill="white"/>
<circle cx="121.927" cy="235.188" r="3" fill="white"/>
<circle cx="108.348" cy="249.037" r="3" fill="white"/>
<circle cx="94.903" cy="262.213" r="3" fill="white"/>
<circle cx="81.3236" cy="275.658" r="3" fill="white"/>
<circle cx="67.8787" cy="289.103" r="3" fill="white"/>
<circle cx="54.4337" cy="302.682" r="3" fill="white"/>
<circle cx="40.8543" cy="316.262" r="3" fill="white"/>
<circle cx="27.6783" cy="329.706" r="3" fill="white"/>
<circle cx="4.82187" cy="342.21" r="3" fill="white"/>
<circle cx="170.329" cy="235.188" r="3" fill="white"/>
<circle cx="231.999" cy="327.152" r="3" fill="white"/>
<circle cx="220.083" cy="314.929" r="3" fill="white"/>
<circle cx="196.25" cy="301.556" r="3" fill="white"/>
<circle cx="160.632" cy="327.111" r="3" fill="white"/>
<circle cx="131.9" cy="355.711" r="3" fill="white"/>
<circle cx="117.732" cy="369.746" r="3" fill="white"/>
<circle cx="103.167" cy="384.178" r="3" fill="white"/>
<circle cx="89.1323" cy="398.346" r="3" fill="white"/>
<circle cx="37.8678" cy="439.383" r="3" fill="white"/>
<circle cx="74.9648" cy="412.513" r="3" fill="white"/>
<circle cx="60.5324" cy="426.946" r="3" fill="white"/>
<circle cx="146.2" cy="341.411" r="3" fill="white"/>
<circle cx="172.284" cy="314.929" r="3" fill="white"/>
<circle cx="256.553" cy="365.336" r="3" fill="white"/>
<circle cx="241.758" cy="380.131" r="3" fill="white"/>
<circle cx="227.668" cy="394.221" r="3" fill="white"/>
<circle cx="213.075" cy="408.525" r="3" fill="white"/>
<circle cx="198.772" cy="422.973" r="3" fill="white"/>
<circle cx="184.479" cy="437.144" r="3" fill="white"/>
<circle cx="169.823" cy="451.316" r="3" fill="white"/>
<circle cx="155.894" cy="465.245" r="3" fill="white"/>
<circle cx="141.238" cy="480.143" r="3" fill="white"/>
<circle cx="126.945" cy="494.193" r="3" fill="white"/>
<circle cx="112.532" cy="508.607" r="3" fill="white"/>
<circle cx="98.3603" cy="522.9" r="3" fill="white"/>
<circle cx="75.5598" cy="535.095" r="3" fill="white"/>
<circle cx="343.545" cy="384.045" r="3" fill="white"/>
<circle cx="342.06" cy="412.764" r="3" fill="white"/>
<circle cx="332.058" cy="426.133" r="3" fill="white"/>
<circle cx="295.909" cy="462.281" r="3" fill="white"/>
<circle cx="283.331" cy="474.754" r="3" fill="white"/>
<circle cx="258.901" cy="499.056" r="3" fill="white"/>
<circle cx="246.559" cy="511.525" r="3" fill="white"/>
<circle cx="234.862" cy="523.626" r="3" fill="white"/>
<circle cx="270.989" cy="487.096" r="3" fill="white"/>
<circle cx="307.747" cy="450.232" r="3" fill="white"/>
<circle cx="319.877" cy="438.115" r="3" fill="white"/>
<circle cx="548.076" cy="242.5" r="3" fill="white"/>
<circle cx="536.5" cy="182.5" r="3" fill="white"/>
<circle cx="549.5" cy="206.737" r="3" fill="white"/>
<path d="M543 292L497 247L496.5 246L496 245.5V243.5L496.5 242L497 241L499 240L500 239.5H501L503 240L516 252.5L531 267.5L548.5 284.5L550 285.5L551.5 287L553.5 288L556 289.5L559.5 290.5H562.212L566 288.5L570 286L572.5 284L589 267L607.5 248.5L624.5 231.5L642.5 213L654 202L676 180L696 160L739.5 116L792 63.5L815.5 40L818 37.5L819.5 36.5H821H822L823 37.5L824.5 38.5L825 39.5L825.5 41V42.5L824.5 44L813.5 55L782.5 86L741.5 127.5L735.5 133L708 161L678 191L667 202L639.5 229.5L601 268L579.5 290.5L575.5 293.5L571 296.5L567 298.5L562.212 299.5H556L548.5 296L543 292Z" fill="#003DA5" stroke="#003DA5"/>
<circle cx="820.5" cy="41.5" r="3" fill="white"/>
<circle cx="793.157" cy="69.2809" r="3" fill="white"/>
<circle cx="766.5" cy="95.5" r="3" fill="white"/>
<circle cx="741.5" cy="120.5" r="3" fill="white"/>
<circle cx="716.5" cy="145.5" r="3" fill="white"/>
<circle cx="691.5" cy="170.5" r="3" fill="white"/>
<circle cx="646.5" cy="216.5" r="3" fill="white"/>
<circle cx="597.5" cy="264.5" r="3" fill="white"/>
<circle cx="500.5" cy="244.5" r="3" fill="white"/>
<circle cx="561" cy="295" r="3.5" fill="white"/>
<circle cx="525" cy="267" r="3.5" fill="white"/>
<path d="M452.333 379.456L447.689 383.893L443.238 379.456V375.526V360.996V357.076L443.486 355.68L444.072 353.562L445.266 351.354L446.842 349.349L451.415 344.776L453.037 343.109L461.125 338.018L465.743 335.72H515.19H526.521H528.706L526.678 337.297L526.025 337.928L525.822 338.153L525.485 339.167V340.046V340.857V341.037L525.62 341.758V342.321L526.025 342.771L526.521 343.56L526.836 343.92L527.219 344.146L528.458 344.844L519.154 344.957H488.405H467.59H465.292L463.625 345.632L452.79 356.941L452.333 357.617V358.251V379.456Z" fill="#7C878E" stroke="#7C878E"/>
<path d="M462.274 427.873L457.895 423.465L457.386 423.607L457.895 423.183L462.217 418.663H519.652H523.495L536.886 405.667L550.757 391.796L553.328 389.31L554.486 388.01V386.202L553.582 385.044L552.791 384.366H552.283L532.168 384.224H526.913L529.314 383.066L531.32 381.456L532.761 380.128L533.496 379.196L534.71 376.907L535.304 374.901H549.712H554.995L552.791 384.366H555.277L555.701 383.998L556.972 383.546L557.876 382.699H562.905L563.301 383.546L563.527 385.383L563.696 388.462L563.301 389.987L562.34 392.389L561.436 394.197L558.3 397.389L543.525 412.193L530.388 425.104L528.693 426.403L526.517 427.421L524.54 427.873H481.315H462.274Z" fill="#7C878E"/>
<path d="M552.791 384.366H555.277L555.701 383.998L556.972 383.546L557.876 382.699H562.905L563.301 383.546L563.527 385.383L563.696 388.462L563.301 389.987L562.34 392.389L561.436 394.197L558.3 397.389L543.525 412.193L530.388 425.104L528.693 426.403L526.517 427.421L524.54 427.873H481.315H462.274L457.895 423.465L457.386 423.607L457.895 423.183L462.217 418.663H519.652H523.495L536.886 405.667L550.757 391.796L553.328 389.31L554.486 388.01V386.202L553.582 385.044L552.791 384.366ZM552.791 384.366L554.995 374.901H549.712H535.304L534.71 376.907L533.496 379.196L532.761 380.128L531.32 381.456L529.314 383.066L526.913 384.224H532.168L552.283 384.366H552.791Z" stroke="#7C878E"/>
<path d="M534.824 354.541L530.049 349.971L525.451 354.541V371.939L524.689 373.462L523.195 374.488L520.764 375.249H502.194H474.895H464.203L459.78 376.626L457.613 378.09L446.687 389.045L445.633 390.539L444.52 392.443L443.583 394.845L442.968 396.339L443.26 563.443V567.573L443.466 568.188L444.432 569.418L445.076 569.887L446.482 570.619H448.562L449.763 570.238L452.311 567.573V527.239V411.628V402.05V397.422L452.634 397.042V396.339L459.253 389.572L463.032 385.618L464.409 384.681L465.492 384.3H479.845H492.498H518.655H521.496L523.635 383.744L525.861 383.275L529.2 381.576L530.606 380.492L532.363 378.325L534.004 375.484L534.824 372.877V354.541Z" fill="#7C878E" stroke="#7C878E"/>
<path d="M647.266 383.764L634.246 384.345L635.698 385.7L658.109 406.9L673.017 421.421L677.663 423.744L680.229 424.519L682.649 425.1L686.182 426.068H705.301L707.479 425.1L711.593 422.292L714.014 419.582L715.417 415.855V412.515V410.24L714.014 406.707L711.593 403.319L707.479 400.85L704.43 399.834H686.811H668.902L663.288 398.382L659.754 395.961L647.266 383.764Z" fill="#7C878E" stroke="#7C878E"/>
<path d="M673.646 409.224H703.413L704.575 409.611L706.027 411.353L706.463 412.999L706.027 414.742L705.149 416.147C704.958 416.534 704.449 417.104 703.946 416.29L703.512 416.882L703.413 417.016H687.295L683.617 416.629L681.439 415.661L677.905 413.919L673.355 409.611L673.646 409.224Z" fill="#303030"/>
<path d="M703.946 416.29H705.059L705.149 416.147M703.946 416.29L703.413 417.016H687.295L683.617 416.629L681.439 415.661L677.905 413.919L673.355 409.611L673.646 409.224H703.413L704.575 409.611L706.027 411.353L706.463 412.999L706.027 414.742L705.149 416.147M703.946 416.29C704.449 417.104 704.958 416.534 705.149 416.147M704.285 417.016L702.058 416.629" stroke="#303030"/>
<path d="M580.552 384.274L571.061 374.971H572.517L608.133 375.065H643.889L645.063 374.642L649.903 372.903L655.494 368.111L662.871 374.031L656.246 379.904L651.031 382.582L647.883 383.71L633.317 384.274H580.552Z" fill="#7C878E" stroke="#7C878E"/>
<path d="M702.903 320.044L655.729 367.829L663.106 373.796L681.29 354.861L699.238 337.288L707.367 328.643L711.36 324.414L714.133 319.293L715.918 314.03L716.529 310.506V281.375V268.36L716.952 266.95L718.69 265.776H720.664L741.619 286.496L748.15 280.012L736.216 268.031L731.987 263.896L726.208 258.446L722.12 256.426H717.75L713.992 257.647L711.032 259.902L709.152 261.594L702.433 254.687L682.793 234.624L675.886 240.591L701.822 266.95L705.346 271.978L706.897 274.703L707.367 276.676V309.66L705.722 315.769L702.903 320.044Z" fill="#7C878E" stroke="#7C878E"/>
<path d="M702.903 320.044L655.729 367.829L663.106 373.796L681.29 354.861L699.238 337.288L707.367 328.643L711.36 324.414L714.133 319.293L715.918 314.03L716.529 310.506V281.375V268.36L716.952 266.95L718.69 265.776H720.664L741.619 286.496L748.15 280.012L736.216 268.031L731.987 263.896L726.208 258.446L722.12 256.426H717.75L713.992 257.647L711.032 259.902L709.152 261.594L702.433 254.687L682.793 234.624L675.886 240.591L701.822 266.95L705.346 271.978L706.897 274.703L707.367 276.676V309.66L705.722 315.769L702.903 320.044Z" fill="#7C878E" stroke="#7C878E"/>
<path d="M717.043 252.775L714.059 246.916V246.261L716.024 242.949L720.137 238.582L721.884 237.017L725.56 234.942L728.908 233.668L732.656 233.159L735.677 233.668L739.135 234.942L742.847 237.199L757.041 251.356L767.886 262.565L769.779 265.55L770.943 269.408V271.81L770.688 275.776L769.597 278.906L766.649 283.347L762.936 286.768L758.205 289.715L754.639 290.771H751.036L749.179 290.261L744.339 288.442L741.755 287.022L748.597 279.925L749.179 280.617L751.036 281.236H753.947L755.33 280.908L757.041 279.343L759.734 276.759L761.699 274.03V271.082L760.935 268.643L755.003 262.565L743.83 251.356L739.353 246.916L735.677 243.568L734.003 242.621L730.327 242.33L727.925 244.113L725.341 246.261L723.558 248.335L723.048 249.791L717.043 252.775Z" fill="#7C878E" stroke="#7C878E"/>
<path d="M533.826 375.83L534.768 372.62L535.386 375.358L534.209 377.891L532.825 379.834L530.587 382.101L528.408 383.455L526.73 384.397H521.725L523.197 384.132L525.817 383.455L528.055 382.336L529.88 381.129L531.794 379.157L533.826 375.83Z" fill="#303030"/>
<path d="M655.568 89.5311H615.266H615.059L613.872 88.9848L611.925 87.1328L611.26 84.9484L611.925 82.6215L613.872 80.7696L617.149 80.1997H636.428H655.568L657.275 80.6271L660.219 81.2444L664.541 83.0014L668.055 85.0434L669.859 86.3255L672.993 90.4094L674.988 94.7307L676.412 100.572V171.849V198.062V222.565V226.222L678.074 228.929L682.443 234.247L675.557 240.705L671.521 235.957L668.482 230.876L666.772 223.61V215.395V175.981L667.105 141.125V116.005V100.572L664.825 94.7307L661.644 92.0239L658.652 90.6468L655.568 89.5311Z" fill="#7C878E"/>
<circle cx="464.641" cy="340.293" r="3.5" fill="white"/>
<circle cx="530.081" cy="340.447" r="3.5" fill="white"/>
<circle cx="491.198" cy="379.498" r="3" fill="white"/>
<circle cx="542.619" cy="406.445" r="3" fill="white"/>
<circle cx="554.238" cy="379.622" r="3" fill="white"/>
<circle cx="568.97" cy="394.76" r="1.75" fill="white"/>
<circle cx="607.088" cy="379.446" r="3" fill="white"/>
<circle cx="622.318" cy="379.539" r="3" fill="white"/>
<circle cx="637.64" cy="379.725" r="3" fill="white"/>
<circle cx="671.674" cy="191.141" r="3" fill="white"/>
<circle cx="671.297" cy="113.626" r="3" fill="white"/>
<circle cx="669.351" cy="93.8942" r="3" fill="white"/>
<circle cx="642.699" cy="84.6813" r="2.75" fill="white"/>
<circle cx="615.95" cy="84.6813" r="2.75" fill="white"/>
<circle cx="615.783" cy="71.175" r="1.75" fill="white"/>
<circle cx="735.955" cy="264.265" r="1.75" fill="white"/>
<circle cx="738.459" cy="250.017" r="1.75" fill="white"/>
<circle cx="750.808" cy="262.538" r="1.75" fill="white"/>
<circle cx="757.888" cy="272.468" r="1.75" fill="white"/>
<circle cx="752.362" cy="277.217" r="1.75" fill="white"/>
<circle cx="752.303" cy="285.993" r="2.25" fill="white"/>
<circle cx="764.015" cy="278.739" r="2.25" fill="white"/>
<circle cx="756.229" cy="257.179" r="2.25" fill="white"/>
<circle cx="743.918" cy="244.668" r="2.25" fill="white"/>
<circle cx="730.809" cy="269.29" r="2.25" fill="white"/>
<circle cx="648.04" cy="391.332" r="3" fill="white"/>
<circle cx="659.668" cy="401.385" r="3" fill="white"/>
<circle cx="682.559" cy="404.292" r="3" fill="white"/>
<circle cx="702.302" cy="404.292" r="3" fill="white"/>
<circle cx="705.693" cy="421.249" r="3" fill="white"/>
<circle cx="689.948" cy="421.854" r="3" fill="white"/>
<circle cx="672.87" cy="415.072" r="3" fill="white"/>
<circle cx="447.635" cy="423.336" r="3" fill="white"/>
<circle cx="447.635" cy="438.956" r="3" fill="white"/>
<circle cx="447.704" cy="455.248" r="3" fill="white"/>
<circle cx="447.566" cy="470.985" r="3" fill="white"/>
<circle cx="447.635" cy="487.068" r="3" fill="white"/>
<circle cx="447.496" cy="502.874" r="3" fill="white"/>
<circle cx="447.774" cy="518.611" r="3" fill="white"/>
<circle cx="447.689" cy="534.458" r="3" fill="white"/>
<circle cx="447.521" cy="550.221" r="3" fill="white"/>
<circle cx="447.779" cy="566.158" r="2.5" fill="white"/>
<circle cx="452.59" cy="570.715" r="2" fill="white"/>
<circle cx="440.536" cy="566.079" r="2" fill="white"/>
</svg>
