<?xml version="1.0" standalone="no"?>
<!DOCTYPE svg PUBLIC "-//W3C//DTD SVG 20010904//EN"
 "http://www.w3.org/TR/2001/REC-SVG-20010904/DTD/svg10.dtd">
<svg version="1.0" xmlns="http://www.w3.org/2000/svg"
 width="1120.000000pt" height="1120.000000pt" viewBox="0 0 1120.000000 1120.000000"
 preserveAspectRatio="xMidYMid meet">
<metadata>
Created by potrace 1.14, written by Peter Selinger 2001-2017
</metadata>
<g transform="translate(0.000000,1120.000000) scale(0.100000,-0.100000)"
fill="#000000" stroke="none">
<path d="M5325 8734 c-16 -2 -82 -11 -145 -19 -1100 -147 -2048 -874 -2478
-1901 -101 -240 -172 -493 -214 -765 -20 -126 -23 -182 -23 -449 0 -341 13
-458 79 -734 285 -1179 1211 -2082 2401 -2340 430 -93 924 -89 1355 10 856
199 1571 725 2019 1487 195 333 329 717 393 1128 20 126 23 182 23 449 0 341
-13 458 -79 734 -235 972 -908 1767 -1832 2161 -224 96 -509 176 -768 217
-104 16 -190 21 -416 23 -157 2 -298 1 -315 -1z m615 -300 c507 -61 968 -247
1389 -561 162 -121 430 -391 554 -558 251 -338 418 -702 508 -1110 80 -362 82
-843 4 -1190 -95 -427 -258 -788 -512 -1130 -128 -173 -401 -446 -570 -570
-515 -378 -1087 -568 -1713 -568 -626 0 -1207 193 -1715 570 -175 130 -438
392 -568 568 -251 338 -418 702 -508 1110 -82 373 -82 837 0 1210 116 525 366
993 733 1371 151 155 249 240 404 351 433 310 950 490 1514 527 97 6 351 -4
480 -20z"/>
<path d="M3617 7003 c-4 -3 -7 -231 -7 -505 l0 -498 743 -2 742 -3 3 -1217 2
-1218 500 0 500 0 2 1218 3 1217 743 3 742 2 -2 503 -3 502 -1981 3 c-1089 1
-1984 -1 -1987 -5z"/>
</g>
</svg>
